<svg width="903" height="903" viewBox="0 0 903 903" fill="none" xmlns="http://www.w3.org/2000/svg">
<path d="M903 903H0.00012207V6.10352e-05H903V903Z" fill="#4fa0dd"/>
<path d="M24.9383 183.114C26.8546 174.423 28.7711 165.733 30.6875 157.043C42.2311 104.694 53.7751 52.3487 65.319 -4.57764e-05H61.6431L27.4365 153.723C23.7813 152.766 20.1153 151.856 16.439 150.992L50.0381 -4.57764e-05H46.338L12.9202 150.176C9.37285 149.371 5.81575 148.608 2.25045 147.882L35.158 -4.57764e-05H31.4577L0 141.37V151.115C8.97694 152.907 17.9006 154.958 26.7594 157.274C25.9883 160.658 25.2171 164.039 24.4461 167.42C16.2323 166.062 8.07817 164.382 0 162.388V166.109C7.81518 168.016 15.7012 169.63 23.6429 170.941C23.0687 173.463 22.4945 175.98 21.92 178.498C14.5785 177.988 7.26561 177.158 0 176.02V179.657C7.00024 180.726 14.0425 181.521 21.1135 182.034L20.0531 186.686C18.0755 195.359 16.1626 204.692 7.89406 209.554C5.42179 211.006 2.71902 211.829 0 212.039V215.589C4.14336 215.232 8.43937 213.473 12.5273 209.994C20.1866 203.478 22.7727 192.935 24.9383 183.114Z" fill="#79b9e5"/>
<path d="M18.1523 6.86646e-05H14.4328C9.6219 21.1483 4.81086 42.3002 0 63.4484V81.5735L18.1523 6.86646e-05Z" fill="#79b9e5"/>
<path d="M139.291 14.8849C145.302 13.888 151.125 12.1217 156.649 9.56082C162.846 14.5273 168.598 20.0465 173.811 26.046C171.366 29.3004 166.794 30.8464 162.897 29.5605C162.008 29.2679 160.894 29.4702 160.506 30.4562C159.079 34.0719 154.744 35.8707 151.2 34.2055C150.537 33.8949 149.482 34.0574 149.052 34.7112C148.943 34.8737 148.83 35.0327 148.716 35.1917C148.131 35.4337 147.659 35.9393 147.589 36.6003C145.241 39.1974 142.061 40.9419 138.509 41.3248C137.962 41.3826 137.405 41.3537 136.861 41.4115C136.736 41.3681 136.633 41.3356 136.547 41.314C136.543 41.2056 136.535 41.0756 136.519 40.9167C136.777 39.508 136.826 38.0306 136.978 36.6075C137.271 33.8516 137.564 31.0992 137.857 28.3432L139.291 14.8849ZM176.002 28.979L250.607 227.903C247.024 229.098 243.456 230.341 239.904 231.623L165.617 33.5482C169.553 33.5879 173.343 31.9445 176.002 28.979ZM255.584 241.011C242.472 246.772 228.991 251.644 215.227 255.599C213.893 252.735 212.627 249.838 211.432 246.913C224.699 241.065 238.229 235.838 251.981 231.251C253.182 234.502 254.383 237.756 255.584 241.011ZM259.518 251.67C247.496 258.373 234.945 264.084 222.012 268.794C220.178 265.543 218.439 262.242 216.8 258.894C230.452 254.953 243.825 250.113 256.835 244.402C257.73 246.826 258.624 249.246 259.518 251.67ZM262.426 259.547C265.505 267.895 269.001 276.759 264.729 285.344C261.119 292.604 253.229 296.672 245.233 295.079C240.836 294.205 237.411 291.535 234.63 288.115C231.496 284.257 228.789 279.991 226.159 275.78C225.371 274.519 224.601 273.248 223.845 271.969C236.576 267.295 248.908 261.635 260.774 255.072L262.426 259.547ZM151.851 38.204C155.623 38.9986 159.702 37.5828 162.174 34.6534L236.511 232.862C233.099 234.123 229.703 235.426 226.321 236.77L151.851 38.204ZM136.675 45.0126C137.418 45.0451 138.171 44.9946 138.833 44.9223C142.546 44.5214 146.066 42.9177 148.836 40.4543L222.969 238.117C218.954 239.746 214.962 241.43 210.993 243.171L136.675 45.0126ZM133.98 28.4733C133.397 33.3062 132.813 38.1968 133.44 43.026C134.006 47.3785 135.539 51.5395 137.061 55.6572C154.4 102.559 171.74 149.464 189.079 196.366C198.6 222.12 208.141 247.924 220.109 272.634C223.111 278.832 226.325 285.048 231.032 290.076C243.21 303.083 263.33 301.826 268.852 283.184C271.709 273.544 268.117 263.297 264.567 253.887C261.426 245.562 258.285 237.236 255.144 228.91C230.73 164.187 206.315 99.4636 181.9 34.7401C180.705 31.576 179.502 28.3902 177.762 25.4897C175.26 21.3179 171.73 17.872 168.115 14.6176C162.279 9.36218 156.105 4.48239 149.654 -9.15527e-05H143.038C146.609 2.18515 150.075 4.53659 153.419 7.05417C149.005 8.9324 144.415 10.3158 139.682 11.161C140.027 7.49841 140.121 3.30847 141.863 -9.15527e-05H137.609C137.369 0.848724 137.21 1.73001 137.111 2.55356C136.067 11.1935 135.024 19.8334 133.98 28.4733Z" fill="#79b9e5"/>
<path d="M127.84 248.701C127.612 247.794 126.843 246.963 125.803 247.162C121.985 247.892 118.148 245.186 117.657 241.303C117.565 240.577 116.864 239.772 116.082 239.757C115.885 239.754 115.69 239.743 115.494 239.732C114.977 239.367 114.298 239.241 113.702 239.533C110.254 238.941 107.078 237.186 104.854 234.39C104.512 233.956 104.24 233.472 103.899 233.043C103.87 232.913 103.841 232.811 103.812 232.728C103.902 232.667 104.008 232.588 104.135 232.49C105.463 231.955 106.736 231.208 108.022 230.572C110.505 229.348 112.988 228.119 115.472 226.895L127.612 220.906C131.669 225.454 136.276 229.427 141.396 232.725C140.514 240.617 138.927 248.43 136.647 256.044C132.59 255.719 128.838 252.681 127.84 248.701ZM142.182 215.084C142.286 219.613 142.15 224.143 141.786 228.654C137.838 225.931 134.214 222.792 130.966 219.245C134.425 217.486 138.234 215.17 142.182 215.084ZM133.628 267.526C135.663 264.825 137.71 262.105 139.23 259.085C141.415 254.74 142.44 249.911 143.257 245.118C144.86 235.697 145.741 226.151 145.887 216.597C145.909 215.163 145.877 213.614 145.003 212.48C143.205 210.143 139.526 211.201 136.864 212.469C129.006 216.207 121.148 219.949 113.29 223.688C108.895 225.779 104.449 227.906 100.705 231.016C97.33 233.823 94.6348 237.345 91.9705 240.834C61.6171 280.573 31.2637 320.312 0.910336 360.051C0.606845 360.449 0.303492 360.846 0 361.243V368.027L100.757 234.813C101.126 235.459 101.573 236.066 101.987 236.59C104.312 239.512 107.551 241.628 111.114 242.651L0 389.554V395.543L114.627 243.994C115.973 247.606 119.353 250.294 123.15 250.814L0 413.632V419.621L125.926 253.133C127.996 256.481 131.413 258.803 135.341 259.461L7.17885 428.907C4.80595 426.975 2.40988 425.067 0 423.182V427.776C1.70371 429.124 3.40121 430.485 5.08627 431.858C3.39076 434.076 1.69538 436.294 0 438.511V444.901C2.91852 441.029 5.83706 437.153 8.75541 433.281C50.3794 378.028 92.0038 322.779 133.628 267.526Z" fill="#79b9e5"/>
<path d="M554.377 326.341C556.996 322.321 560.037 318.615 563.494 315.274C565.347 318.687 567.759 322.433 567.954 326.377C563.429 326.601 558.896 326.583 554.377 326.341ZM526.861 321.931C527.078 317.867 530.014 314.035 533.966 312.933C534.869 312.68 535.678 311.889 535.45 310.856C534.623 307.06 537.22 303.152 541.088 302.556C541.814 302.447 542.602 301.725 542.595 300.941C542.591 300.746 542.598 300.551 542.602 300.352C542.952 299.825 543.064 299.142 542.754 298.557C543.259 295.093 544.924 291.871 547.662 289.574C548.085 289.22 548.562 288.935 548.981 288.585C549.111 288.552 549.215 288.52 549.295 288.491C549.36 288.577 549.439 288.682 549.544 288.805C550.111 290.12 550.895 291.373 551.563 292.641C552.853 295.09 554.146 297.539 555.435 299.991L561.745 311.965C557.31 316.144 553.456 320.854 550.299 326.059C542.385 325.387 534.533 324.007 526.861 321.931ZM523.408 320.717L350.619 197.1C352.927 194.109 355.199 191.093 357.434 188.048L529.487 311.138C526.193 313.294 523.964 316.773 523.408 320.717ZM339.182 188.987C346.862 176.901 355.341 165.343 364.566 154.388C367.272 156.024 369.934 157.722 372.56 159.488C364.801 171.736 356.476 183.613 347.613 195.088C344.803 193.054 341.993 191.021 339.182 188.987ZM329.977 182.327C336.224 170.064 343.466 158.329 351.581 147.211C354.914 148.89 358.198 150.66 361.424 152.531C352.282 163.407 343.875 174.879 336.255 186.871C334.162 185.357 332.07 183.844 329.977 182.327ZM323.173 177.407C315.965 172.191 308.125 166.781 306.887 157.27C305.841 149.23 310.125 141.457 317.652 138.322C321.791 136.599 326.122 136.906 330.338 138.199C335.09 139.655 339.715 141.692 344.245 143.722C345.601 144.328 346.95 144.957 348.29 145.596C340.321 156.57 333.234 168.142 327.037 180.203L323.173 177.407ZM538.322 299.598C534.746 301.042 532.149 304.492 531.73 308.299L359.562 185.13C361.691 182.179 363.786 179.206 365.845 176.208L538.322 299.598ZM547.131 285.489C546.496 285.876 545.9 286.338 545.387 286.768C542.53 289.17 540.5 292.464 539.571 296.051L367.879 173.221C370.306 169.631 372.683 166.008 375.009 162.352L547.131 285.489ZM558.585 297.723C556.374 293.385 554.135 288.996 550.924 285.337C548.027 282.04 544.437 279.439 540.879 276.867C500.349 247.577 459.815 218.291 419.281 189.005C397.027 172.925 374.727 156.815 351.021 142.963C345.075 139.488 338.942 136.118 332.232 134.565C314.873 130.549 298.866 142.804 304.665 161.359C307.666 170.96 316.358 177.465 324.548 183.298C331.795 188.463 339.043 193.629 346.29 198.794C402.626 238.934 458.962 279.078 515.299 319.218C518.055 321.183 520.829 323.155 523.888 324.596C528.291 326.662 533.142 327.558 537.957 328.248C547.42 329.602 556.985 330.227 566.539 330.123C567.973 330.104 569.518 330.032 570.631 329.129C572.917 327.269 571.762 323.617 570.425 320.991C566.477 313.236 562.533 305.478 558.585 297.723Z" fill="#79b9e5"/>
<path d="M419.891 364.982C418.587 360.366 417.796 355.637 417.554 350.837C421.34 351.686 425.75 352.329 428.849 354.778C426.043 358.336 423.048 361.738 419.891 364.982ZM398.469 382.803C395.55 379.968 394.597 375.236 396.363 371.534C396.767 370.689 396.706 369.558 395.778 369.049C392.372 367.174 391.14 362.648 393.238 359.343C393.629 358.722 393.603 357.657 393.007 357.147C392.859 357.021 392.715 356.887 392.574 356.754C392.408 356.143 391.967 355.609 391.32 355.457C389.041 352.798 387.712 349.425 387.784 345.853C387.795 345.3 387.896 344.755 387.904 344.206C387.965 344.086 388.008 343.989 388.041 343.906C388.149 343.917 388.279 343.924 388.442 343.931C389.803 344.364 391.263 344.599 392.657 344.932C395.352 345.571 398.046 346.21 400.741 346.85L413.914 349.977C414.138 356.064 415.152 362.063 416.995 367.868C411.284 373.387 405.079 378.393 398.469 382.803ZM188.511 433.422C187.778 429.716 187 426.021 186.177 422.333L392.065 373.726C391.526 377.627 392.675 381.593 395.283 384.606L188.511 433.422ZM182.793 408.21L389.189 359.481C387.922 363.122 388.81 367.348 391.404 370.172L185.378 418.811C184.558 415.268 183.695 411.735 182.793 408.21ZM174.879 436.698C170.826 422.965 167.7 408.976 165.52 394.82C168.529 393.86 171.562 392.971 174.616 392.155C178.737 406.057 182.207 420.141 185.018 434.361C181.638 435.141 178.258 435.921 174.879 436.698ZM163.807 439.252C158.68 426.48 154.606 413.307 151.572 399.881C155.027 398.472 158.522 397.165 162.053 395.962C164.23 410.005 167.338 423.883 171.358 437.511C168.841 438.092 166.324 438.674 163.807 439.252ZM155.624 441.141C146.957 443.138 137.722 445.482 129.744 440.158C123.002 435.658 119.964 427.314 122.556 419.584C123.981 415.333 127.062 412.274 130.809 409.951C135.032 407.329 139.607 405.183 144.116 403.11C145.467 402.489 146.826 401.886 148.191 401.297C151.212 414.517 155.265 427.466 160.272 440.068L155.624 441.141ZM384.357 343.566C384.23 344.299 384.187 345.051 384.172 345.719C384.1 349.45 385.245 353.149 387.34 356.208L181.88 404.714C180.773 400.524 179.609 396.352 178.385 392.195L384.357 343.566ZM426.418 349.374C417.981 347.247 409.543 345.116 401.105 342.988C396.384 341.796 391.606 340.597 386.737 340.608C382.348 340.619 378.028 341.612 373.748 342.602C325.028 353.86 276.306 365.123 227.585 376.385C200.833 382.565 174.031 388.763 148.002 397.504C141.474 399.7 134.902 402.102 129.318 406.133C114.874 416.565 113.572 436.684 131.363 444.522C140.566 448.578 151.184 446.31 160.967 443.98C169.625 441.917 178.281 439.858 186.939 437.796C254.232 421.773 321.526 405.75 388.821 389.728C392.112 388.944 395.42 388.153 398.519 386.795C402.973 384.841 406.841 381.774 410.525 378.603C417.768 372.368 424.533 365.574 430.738 358.307C431.67 357.22 432.631 356.002 432.681 354.572C432.786 351.625 429.279 350.097 426.418 349.374Z" fill="#79b9e5"/>
<path d="M418.049 38.0198C417.674 38.8795 417.771 40.0064 418.718 40.4868C422.181 42.2459 423.565 46.7283 421.578 50.102C421.206 50.7341 421.268 51.7996 421.878 52.2872C422.033 52.41 422.178 52.5401 422.326 52.6665C422.514 53.2733 422.972 53.7898 423.623 53.9235C425.988 56.5025 427.426 59.8327 427.477 63.405C427.484 63.954 427.401 64.5066 427.408 65.052C427.35 65.1748 427.31 65.2724 427.282 65.3555C427.173 65.3518 427.043 65.3482 426.881 65.3482C425.504 64.9581 424.038 64.7703 422.633 64.485C419.92 63.936 417.208 63.3869 414.491 62.8379L401.225 60.1469C400.795 54.0715 399.585 48.1081 397.551 42.3687C403.078 36.6653 409.11 31.4532 415.571 26.8262C418.584 29.5641 419.693 34.2633 418.049 38.0198ZM386.137 55.8414C388.825 52.1969 391.703 48.6969 394.752 45.3486C396.208 49.9178 397.154 54.6206 397.555 59.4101C393.744 58.6841 389.312 58.1892 386.137 55.8414ZM415.391 22.8422C411.002 24.9408 407.239 28.1302 403.659 31.4243C396.627 37.897 390.092 44.9079 384.129 52.3775C383.237 53.4972 382.316 54.7434 382.312 56.1737C382.305 59.1247 385.863 60.5371 388.745 61.1619C397.248 63.0113 405.75 64.8606 414.257 66.71C419.014 67.743 423.828 68.7832 428.694 68.6099C433.082 68.4545 437.366 67.3204 441.607 66.1898C489.932 53.3203 538.253 40.4543 586.574 27.5847C613.108 20.5197 639.689 13.4402 665.413 3.83951C668.563 2.66199 671.72 1.4375 674.761 -7.62939e-05H665.218C665.179 0.0179825 665.139 0.0396423 665.099 0.0577011C665.096 0.036026 665.088 0.0179825 665.085 -7.62939e-05H661.346C661.487 0.527275 661.632 1.05466 661.769 1.58201C658.363 3.10627 654.913 4.52579 651.421 5.84417C651.052 3.89368 650.662 1.94318 650.257 -7.62939e-05H646.573C647.072 2.36217 647.548 4.72802 647.996 7.1011C645.02 8.16303 642.019 9.1527 638.992 10.0665C637.879 6.72183 636.806 3.36631 635.77 -7.62939e-05H631.999C633.035 3.3952 634.108 6.77963 635.224 10.1532L430.977 65.5758C431.078 64.8389 431.096 64.0841 431.089 63.4194C431.038 59.6846 429.77 56.0293 427.578 53.0421L623.048 -7.62939e-05H609.254L425.62 49.8311C426.765 46.1468 425.736 41.9533 423.052 39.219L567.582 -7.62939e-05H553.792L422.272 35.6865C422.683 31.7711 421.401 27.8448 418.696 24.9191L510.535 -7.62939e-05H496.632C472.749 6.53042 448.867 13.0573 424.984 19.5878C421.723 20.48 418.439 21.3794 415.391 22.8422Z" fill="#79b9e5"/>
<path d="M827.708 92.0302C825.667 87.6886 824.118 83.1555 823.095 78.4563C826.971 78.6766 831.428 78.5936 834.881 80.5043C832.692 84.4703 830.294 88.3171 827.708 92.0302ZM809.478 113.11C806.137 110.787 804.425 106.272 805.566 102.332C805.826 101.432 805.581 100.327 804.58 99.9766C800.914 98.6835 798.96 94.4178 800.491 90.8166C800.777 90.1412 800.578 89.0937 799.906 88.6855C799.74 88.5844 799.578 88.476 799.415 88.3676C799.151 87.7933 798.628 87.3419 797.967 87.2949C795.283 85.0446 793.423 81.9311 792.91 78.3949C792.83 77.8495 792.841 77.2933 792.762 76.7515C792.802 76.625 792.83 76.5203 792.849 76.4336C792.957 76.4264 793.083 76.4119 793.246 76.3903C794.662 76.5961 796.139 76.5925 797.569 76.69C800.333 76.8815 803.092 77.0729 805.855 77.2643L819.361 78.2035C820.578 84.1705 822.557 89.9244 825.32 95.3497C820.585 101.728 815.283 107.677 809.478 113.11ZM610.591 197.295C609.261 193.759 607.892 190.237 606.476 186.737L801.68 105.196C801.785 109.133 803.569 112.861 806.628 115.407L610.591 197.295ZM597.674 202.752C591.436 189.861 586.069 176.569 581.608 162.959C584.422 161.521 587.268 160.149 590.15 158.845C596.482 171.888 602.204 185.216 607.296 198.79C604.089 200.112 600.882 201.43 597.674 202.752ZM587.167 207.076C580.026 195.308 573.857 182.977 568.673 170.226C571.852 168.272 575.088 166.412 578.375 164.653C582.814 178.151 588.146 191.335 594.333 204.125C591.945 205.108 589.554 206.094 587.167 207.076ZM579.401 210.273C571.176 213.657 562.446 217.475 553.709 213.523C546.322 210.182 541.963 202.449 543.259 194.401C543.974 189.973 546.514 186.451 549.83 183.547C553.572 180.271 557.733 177.411 561.843 174.626C563.075 173.795 564.317 172.975 565.571 172.173C570.707 184.725 576.815 196.84 583.811 208.456L579.401 210.273ZM800.448 101.797L605.115 183.388C603.728 180.026 602.301 176.681 600.835 173.351L796.518 91.6112C795.865 95.4111 797.432 99.4348 800.448 101.797ZM789.157 76.6973C789.15 77.4414 789.229 78.1926 789.327 78.85C789.861 82.5487 791.599 86.0054 794.16 88.6819L599.364 170.053C597.591 166.098 595.76 162.172 593.874 158.271L789.157 76.6973ZM831.602 75.5667C822.929 74.8443 814.257 74.1219 805.588 73.3959C800.737 72.9914 795.825 72.5868 791.024 73.3923C786.694 74.1183 782.594 75.8015 778.534 77.4775C732.301 96.5344 686.071 115.588 639.837 134.645C614.452 145.109 589.02 155.594 564.765 168.467C558.683 171.693 552.589 175.135 547.738 180.026C535.186 192.671 537.184 212.732 556.017 217.565C565.758 220.065 575.865 216.095 585.137 212.201C593.34 208.756 601.546 205.31 609.753 201.868C673.53 175.081 737.31 148.298 801.087 121.515C804.208 120.204 807.347 118.885 810.179 117.036C814.257 114.385 817.573 110.73 820.69 106.998C826.819 99.6624 832.385 91.8604 837.323 83.6756C838.06 82.4512 838.815 81.0967 838.631 79.6772C838.251 76.7515 834.542 75.8123 831.602 75.5667Z" fill="#79b9e5"/>
<path d="M807.842 263.669C807.788 265.157 807.719 266.642 807.629 268.126C794.463 264.886 781.073 262.69 767.564 261.502L768.695 256.868C770.801 248.228 772.856 238.923 781.196 234.188C788.247 230.186 797.064 231.219 802.803 237.005C805.964 240.191 807.311 244.316 807.708 248.708C808.149 253.66 808.012 258.71 807.842 263.669ZM806.166 282.906C792.646 278.543 778.848 275.087 764.866 272.555C765.48 270.048 766.091 267.537 766.705 265.027C780.419 266.183 794.019 268.462 807.376 271.782C807.083 275.502 806.679 279.211 806.166 282.906ZM803.926 295.841C789.655 293.277 775.514 290.051 761.547 286.175C762.367 282.805 763.19 279.435 764.01 276.065C778.104 278.615 792.007 282.105 805.631 286.515C805.136 289.636 804.569 292.746 803.926 295.841ZM753.124 505.055C752.528 504.611 751.874 504.235 751.281 503.925C747.98 502.184 744.162 501.548 740.489 502.043L789.442 296.69C793.683 297.582 797.934 298.416 802.2 299.189L753.124 505.055ZM750.964 508.541C749.963 509.563 749.096 510.762 748.175 511.86C746.394 513.981 744.61 516.097 742.829 518.217L734.121 528.584C728.58 526.048 722.761 524.26 716.751 523.299C714.385 515.718 712.698 507.927 711.726 500.038C715.573 498.705 720.229 499.977 722.743 503.22C723.314 503.961 724.354 504.412 725.224 503.813C728.428 501.613 733.03 502.545 735.038 505.904C735.414 506.533 736.382 506.988 737.101 506.684C737.285 506.608 737.466 506.54 737.65 506.471C738.271 506.598 738.947 506.442 739.373 505.937C742.768 505.095 746.38 505.424 749.541 507.092C750.028 507.349 750.472 507.685 750.956 507.938C751.036 508.046 751.105 508.129 751.162 508.194C751.105 508.288 751.04 508.4 750.964 508.541ZM723.119 539.77C721.204 535.663 719.507 531.463 718.026 527.182C722.736 528.093 727.319 529.509 731.715 531.452C729.256 534.453 726.698 538.101 723.119 539.77ZM775.276 293.482C778.812 294.342 782.356 295.158 785.91 295.935L736.732 502.223C734.049 499.457 729.873 498.355 726.185 499.403L775.276 293.482ZM760.814 289.719C764.454 290.726 768.106 291.691 771.769 292.612L722.714 498.395C719.474 496.163 715.411 495.408 711.549 496.383L760.814 289.719ZM776.569 233.675C768.814 240.075 766.069 250.579 763.754 260.368C761.709 269.026 759.661 277.687 757.613 286.349C741.702 353.669 725.788 420.99 709.877 488.31C709.097 491.601 708.317 494.913 708.14 498.29C707.883 503.148 708.887 507.981 710.065 512.698C712.384 521.97 715.411 531.065 719.117 539.875C719.673 541.193 720.327 542.598 721.58 543.288C724.166 544.704 727.11 542.255 729.039 540.027C734.731 533.446 740.424 526.861 746.116 520.28C749.302 516.599 752.52 512.864 754.695 508.512C756.66 504.586 757.711 500.277 758.751 496.014C770.573 447.426 782.399 398.837 794.225 350.249C800.719 323.57 807.22 296.842 811.1 269.661C812.075 262.842 812.88 255.892 811.786 249.091C808.954 231.5 791.566 221.3 776.569 233.675Z" fill="#79b9e5"/>
<path d="M709.632 758.155C708.7 753.449 708.288 748.67 708.432 743.866C712.138 745.015 716.484 746.012 719.377 748.699C716.292 752.018 713.038 755.172 709.632 758.155ZM686.854 774.21C684.174 771.147 683.6 766.354 685.659 762.807C686.128 761.998 686.154 760.864 685.272 760.283C682.025 758.144 681.158 753.532 683.513 750.404C683.954 749.819 684.012 748.753 683.463 748.197C683.322 748.06 683.192 747.915 683.058 747.771C682.943 747.149 682.545 746.582 681.913 746.376C679.854 743.548 678.8 740.077 679.154 736.523C679.208 735.974 679.352 735.436 679.406 734.89C679.475 734.778 679.529 734.684 679.565 734.605C679.674 734.623 679.804 734.641 679.963 734.659C681.288 735.201 682.722 735.551 684.088 735.992C686.721 736.844 689.354 737.697 691.991 738.549L704.871 742.717C704.611 748.807 705.142 754.868 706.514 760.799C700.381 765.845 693.797 770.338 686.854 774.21ZM473.526 807.903C473.093 804.15 472.612 800.405 472.085 796.666L681.198 764.649C680.349 768.493 681.176 772.538 683.535 775.749L473.526 807.903ZM471.572 793.09C471.037 789.489 470.456 785.899 469.838 782.316L679.468 750.22C677.915 753.748 678.464 758.032 680.822 761.052L471.572 793.09ZM459.678 810.081C456.734 796.067 454.733 781.871 453.689 767.59C456.766 766.871 459.862 766.228 462.972 765.661C465.97 779.845 468.303 794.16 469.968 808.561C466.537 809.066 463.105 809.576 459.678 810.081ZM448.437 811.743C444.345 798.599 441.336 785.144 439.382 771.519C442.94 770.393 446.526 769.367 450.142 768.453C451.193 782.623 453.183 796.702 456.102 810.609C453.544 810.988 450.991 811.363 448.437 811.743ZM440.129 812.971C431.331 814.271 421.936 815.868 414.408 809.926C408.048 804.902 405.685 796.345 408.886 788.846C410.645 784.721 413.96 781.918 417.883 779.899C422.301 777.624 427.032 775.85 431.692 774.142C433.09 773.629 434.491 773.138 435.9 772.661C437.857 786.079 440.863 799.31 444.847 812.274L440.129 812.971ZM675.921 733.969C675.737 734.688 675.632 735.436 675.567 736.1C675.195 739.817 676.044 743.592 677.886 746.81L469.21 778.758C468.44 774.492 467.613 770.241 466.725 765.997L675.921 733.969ZM717.387 743.118C709.144 740.323 700.901 737.527 692.662 734.731C688.053 733.167 683.383 731.589 678.529 731.21C674.155 730.87 669.766 731.517 665.424 732.16C615.958 739.496 566.495 746.831 517.029 754.164C489.87 758.195 462.657 762.229 436.015 768.868C429.333 770.533 422.59 772.401 416.702 775.973C401.47 785.22 398.566 805.169 415.676 814.405C424.526 819.18 435.289 817.768 445.23 816.229C454.021 814.863 462.816 813.502 471.612 812.136C539.969 801.539 608.326 790.938 676.683 780.34C680.028 779.82 683.39 779.296 686.587 778.191C691.182 776.598 695.281 773.853 699.211 770.985C706.926 765.347 714.212 759.116 720.977 752.369C721.992 751.357 723.05 750.223 723.213 748.8C723.552 745.871 720.179 744.065 717.387 743.118Z" fill="#79b9e5"/>
<path d="M656.878 411.92C643.604 409.146 630.146 407.419 616.605 406.704L617.573 402.034C619.379 393.322 621.105 383.952 629.275 378.928C636.182 374.684 645.027 375.406 650.969 380.99C654.238 384.06 655.73 388.138 656.275 392.512C656.893 397.446 656.933 402.496 656.936 407.462C656.936 408.947 656.914 410.435 656.878 411.92ZM655.936 426.743C642.268 422.857 628.358 419.884 614.296 417.843C614.82 415.315 615.348 412.787 615.871 410.255C629.619 410.934 643.29 412.732 656.752 415.586C656.589 419.314 656.319 423.034 655.936 426.743ZM654.148 439.75C639.797 437.688 625.551 434.957 611.454 431.569C612.158 428.174 612.863 424.778 613.563 421.383C627.737 423.438 641.755 426.44 655.524 430.37C655.141 433.505 654.682 436.633 654.148 439.75ZM610.688 650.612C610.074 650.189 609.409 649.835 608.81 649.546C605.447 647.921 601.611 647.419 597.956 648.043L639.703 441.105C643.969 441.849 648.249 442.531 652.537 443.156L610.688 650.612ZM608.651 654.169C607.687 655.228 606.863 656.456 605.978 657.583C604.273 659.764 602.568 661.946 600.86 664.128L592.516 674.787C586.892 672.45 581.016 670.868 574.973 670.116C572.347 662.621 570.389 654.892 569.139 647.043C572.935 645.576 577.635 646.685 580.261 649.839C580.86 650.561 581.911 650.976 582.764 650.344C585.888 648.033 590.519 648.806 592.643 652.092C593.04 652.706 594.022 653.129 594.734 652.8C594.911 652.717 595.092 652.645 595.272 652.569C595.897 652.674 596.565 652.493 596.973 651.973C600.34 651.012 603.963 651.215 607.177 652.771C607.672 653.01 608.131 653.331 608.622 653.57C608.705 653.671 608.777 653.754 608.839 653.815C608.785 653.913 608.723 654.025 608.651 654.169ZM581.915 686.352C579.856 682.318 578.014 678.175 576.385 673.952C581.124 674.696 585.751 675.953 590.215 677.738C587.86 680.826 585.433 684.561 581.915 686.352ZM625.432 438.392C628.994 439.129 632.566 439.819 636.145 440.473L594.207 648.354C591.429 645.685 587.217 644.728 583.569 645.901L625.432 438.392ZM610.847 435.138C614.52 436.019 618.205 436.857 621.896 437.648L580.062 645.02C576.746 642.9 572.661 642.286 568.836 643.398L610.847 435.138ZM624.634 378.577C617.107 385.245 614.73 395.839 612.761 405.7C611.017 414.426 609.276 423.153 607.531 431.88C593.983 499.717 580.43 567.55 566.882 635.387C566.217 638.703 565.553 642.04 565.495 645.425C565.408 650.286 566.578 655.08 567.922 659.753C570.562 668.939 573.907 677.922 577.92 686.598C578.52 687.895 579.22 689.278 580.499 689.925C583.136 691.247 585.989 688.7 587.839 686.403C593.3 679.627 598.758 672.847 604.215 666.071C607.271 662.282 610.356 658.439 612.379 654.01C614.203 650.019 615.106 645.678 615.994 641.379C626.115 592.408 636.232 543.436 646.353 494.465C651.908 467.573 657.474 440.635 660.4 413.332C661.137 406.484 661.7 399.512 660.368 392.754C656.922 375.272 639.187 365.686 624.634 378.577Z" fill="#79b9e5"/>
<path d="M526.796 419.342C526.319 424.287 525.253 429.228 524.173 434.072C523.848 435.524 523.505 436.969 523.144 438.414C510.798 432.804 498.041 428.181 484.983 424.529L486.948 420.18C490.611 412.075 494.338 403.309 503.412 400.188C511.076 397.551 519.554 400.192 524.13 406.935C526.648 410.648 527.215 414.95 526.796 419.342ZM518.987 452.67C506.5 445.894 493.576 439.956 480.298 434.896C481.36 432.541 482.426 430.189 483.488 427.834C496.758 431.497 509.704 436.239 522.223 441.961C521.251 445.562 520.171 449.134 518.987 452.67ZM514.403 464.973C500.851 459.826 487.544 454.054 474.526 447.671C475.953 444.511 477.384 441.35 478.81 438.19C492.193 443.29 505.214 449.279 517.798 456.12C516.736 459.096 515.606 462.047 514.403 464.973ZM425.96 661.263C425.454 660.718 424.88 660.227 424.359 659.811C421.434 657.492 417.8 656.163 414.098 655.975L500.013 463.142C504.015 464.799 508.042 466.4 512.091 467.945L425.96 661.263ZM423.196 664.29C422.022 665.114 420.953 666.129 419.844 667.039C417.702 668.794 415.561 670.55 413.419 672.305L402.951 680.887C397.97 677.38 392.581 674.552 386.849 672.5C385.92 664.612 385.697 656.644 386.195 648.712C390.219 648.108 394.56 650.214 396.435 653.866C396.861 654.7 397.8 655.336 398.768 654.906C402.323 653.331 406.671 655.094 408.03 658.767C408.282 659.454 409.149 660.079 409.911 659.916C410.106 659.873 410.298 659.84 410.489 659.808C411.078 660.046 411.768 660.017 412.281 659.595C415.777 659.392 419.266 660.382 422.066 662.603C422.496 662.943 422.871 663.358 423.301 663.698C423.359 663.817 423.409 663.911 423.456 663.987C423.381 664.066 423.297 664.164 423.196 664.29ZM390.078 689.86C388.951 685.475 388.059 681.028 387.391 676.553C391.855 678.312 396.096 680.548 400.061 683.264C397.089 685.764 393.903 688.881 390.078 689.86ZM486.677 457.38C489.993 458.876 493.327 460.331 496.679 461.747L410.37 655.462C408.243 652.248 404.342 650.395 400.524 650.745L486.677 457.38ZM473.157 451.02C476.549 452.681 479.959 454.303 483.39 455.881L397.295 649.12C394.521 646.324 390.667 644.836 386.693 645.085L473.157 451.02ZM498.958 398.834C490.156 403.699 485.525 413.516 481.451 422.712C477.842 430.847 474.237 438.981 470.629 447.119C442.6 510.358 414.567 573.6 386.535 636.839C385.166 639.931 383.786 643.044 382.991 646.331C381.846 651.059 381.94 655.993 382.229 660.848C382.803 670.387 384.107 679.883 386.126 689.224C386.43 690.625 386.813 692.128 387.922 693.034C390.201 694.902 393.545 693.038 395.85 691.203C402.658 685.782 409.464 680.356 416.272 674.935C420.079 671.904 423.93 668.827 426.87 664.948C429.521 661.451 431.349 657.409 433.155 653.411C453.721 607.827 474.288 562.248 494.855 516.664C506.146 491.637 517.459 466.562 526.276 440.559C528.486 434.036 530.559 427.354 530.733 420.469C531.188 402.655 515.974 389.431 498.958 398.834Z" fill="#79b9e5"/>
<path d="M22.509 696.636C26.1521 695.299 30.2083 693.45 34.139 693.829C33.7057 698.341 33.0337 702.823 32.1386 707.259C28.5407 704.087 25.3136 700.54 22.509 696.636ZM25.9965 737.173C28.681 733.117 30.2705 728.447 31.6489 723.78C34.3572 714.616 36.3616 705.243 37.6392 695.772C37.8303 694.353 37.982 692.807 37.2487 691.579C35.7398 689.047 31.9611 689.661 29.1676 690.604C20.9222 693.389 12.6771 696.17 4.43174 698.955C2.95309 699.453 1.46893 699.955 0 700.493V704.593C2.07267 703.86 4.1452 703.13 6.21788 702.397L18.982 697.885C22.4719 702.881 26.5759 707.374 31.269 711.254C29.4587 718.987 26.9572 726.558 23.7918 733.847C19.8021 733.045 16.4356 729.584 15.9161 725.514C15.7976 724.585 15.1323 723.668 14.0758 723.744C10.199 724.015 6.70831 720.876 6.68108 716.96C6.67599 716.231 6.07535 715.346 5.30003 715.241C5.10549 715.216 4.9129 715.18 4.71987 715.147C4.24919 714.721 3.58999 714.515 2.96367 714.735C1.93044 714.428 0.93644 714.013 0 713.5V717.513C0.00846562 717.517 0.016508 717.52 0.0249736 717.524L0 717.549V722.758L3.3538 719.272C4.26299 723.018 7.30032 726.088 11.0094 727.056L0 738.495V743.704L13.4913 729.686C15.1502 733.258 18.2677 735.967 22.0903 737.087L0 760.037V765.163C6.47819 758.405 12.9561 751.65 19.4341 744.892C21.775 742.45 24.1297 739.994 25.9965 737.173Z" fill="#79b9e5"/>
<path d="M311.426 508.107C307.464 505.406 303.824 502.285 300.559 498.756C304.009 496.979 307.806 494.642 311.753 494.537C311.88 499.063 311.767 503.596 311.426 508.107ZM306.423 535.522C302.365 535.219 298.598 532.203 297.58 528.226C297.347 527.319 296.574 526.492 295.535 526.695C291.721 527.442 287.87 524.759 287.36 520.879C287.265 520.153 286.559 519.351 285.777 519.341C285.581 519.341 285.385 519.33 285.19 519.319C284.67 518.958 283.991 518.831 283.396 519.127C279.945 518.55 276.761 516.812 274.523 514.027C274.178 513.601 273.904 513.113 273.561 512.687C273.531 512.557 273.501 512.452 273.473 512.369C273.563 512.308 273.667 512.232 273.794 512.131C275.12 511.589 276.39 510.834 277.671 510.195C280.149 508.956 282.626 507.721 285.103 506.482L297.213 500.432C301.293 504.958 305.92 508.909 311.056 512.182C310.213 520.077 308.665 527.897 306.423 535.522ZM177.819 709.032C174.88 706.659 171.912 704.322 168.916 702.021L295.688 532.665C297.775 536.003 301.203 538.311 305.135 538.95L177.819 709.032ZM169.462 720.291C157.543 712.351 146.171 703.625 135.419 694.165C137.112 691.499 138.868 688.87 140.689 686.287C152.766 694.306 164.462 702.884 175.742 711.994C173.649 714.761 171.556 717.524 169.462 720.291ZM162.606 729.349C150.48 722.841 138.903 715.346 127.965 706.995C129.712 703.697 131.555 700.453 133.493 697.264C144.17 706.641 155.457 715.295 167.282 723.173C165.724 725.232 164.165 727.291 162.606 729.349ZM157.539 736.046C152.171 743.14 146.591 750.863 137.055 751.896C128.996 752.766 121.314 748.316 118.344 740.724C116.711 736.548 117.112 732.225 118.495 728.035C120.054 723.317 122.188 718.737 124.316 714.251C124.954 712.908 125.609 711.575 126.279 710.249C137.077 718.452 148.492 725.788 160.417 732.243L157.539 736.046ZM284.343 523.585C285.708 527.189 289.101 529.859 292.901 530.361L166.044 699.832C163.141 697.64 160.212 695.483 157.259 693.356L284.343 523.585ZM270.428 514.472C270.8 515.118 271.25 515.721 271.667 516.242C274.006 519.153 277.256 521.251 280.824 522.259L154.317 691.261C150.781 688.758 147.21 686.302 143.605 683.9L270.428 514.472ZM306.423 491.947C298.583 495.729 290.745 499.507 282.906 503.285C278.521 505.398 274.085 507.544 270.357 510.675C266.996 513.5 264.319 517.033 261.672 520.536C231.517 560.427 201.362 600.318 171.208 640.209C154.65 662.112 138.064 684.059 123.703 707.461C120.102 713.33 116.6 719.391 114.903 726.066C110.513 743.335 122.419 759.6 141.096 754.204C150.757 751.412 157.449 742.862 163.46 734.8C168.779 727.663 174.099 720.529 179.418 713.395C220.766 657.937 262.114 602.482 303.462 547.023C305.484 544.31 307.517 541.58 309.021 538.553C311.185 534.197 312.186 529.364 312.978 524.564C314.535 515.136 315.368 505.586 315.467 496.029C315.481 494.598 315.441 493.049 314.562 491.918C312.752 489.592 309.078 490.669 306.423 491.947Z" fill="#79b9e5"/>
<path d="M115.714 555.327C116.052 554.457 115.903 553.333 114.939 552.896C111.401 551.285 109.825 546.864 111.666 543.411C112.01 542.765 111.902 541.703 111.271 541.24C111.113 541.125 110.96 541.002 110.806 540.879C110.594 540.283 110.113 539.785 109.457 539.684C106.984 537.206 105.402 533.944 105.199 530.375C105.168 529.826 105.227 529.274 105.196 528.725C105.246 528.602 105.283 528.501 105.308 528.418C105.417 528.418 105.547 528.418 105.708 528.41C107.102 528.739 108.574 528.862 109.989 529.086C112.724 529.516 115.46 529.949 118.195 530.383L131.567 532.496C132.257 538.549 133.726 544.455 136.005 550.1C130.731 556.039 124.926 561.504 118.67 566.405C115.545 563.801 114.232 559.156 115.714 555.327ZM146.826 536.147C144.298 539.904 141.572 543.527 138.672 547.001C137.019 542.501 135.87 537.845 135.264 533.074C139.105 533.633 143.551 533.94 146.826 536.147ZM119.026 570.382C123.318 568.092 126.94 564.744 130.373 561.298C137.119 554.529 143.346 547.24 148.979 539.521C149.824 538.365 150.692 537.079 150.633 535.649C150.512 532.701 146.896 531.445 143.991 530.942C135.416 529.462 126.84 527.984 118.264 526.503C113.468 525.676 108.61 524.845 103.757 525.228C99.3809 525.571 95.1484 526.893 90.9592 528.205C60.6393 537.697 30.3198 547.189 0 556.685V560.698L101.61 528.356C101.537 529.097 101.552 529.852 101.59 530.516C101.801 534.247 103.226 537.841 105.546 540.735L0 574.33V578.119L107.639 543.859C106.655 547.587 107.864 551.73 110.664 554.348L0 589.572V593.361L111.595 557.841C111.353 561.771 112.803 565.639 115.631 568.446L0 605.248V609.153C36.526 597.45 73.052 585.747 109.578 574.044C112.799 573.011 116.041 571.971 119.026 570.382Z" fill="#79b9e5"/>
<path d="M262.135 33.3388C262.746 34.0504 263.806 34.4477 264.647 33.8048C267.733 31.4426 272.374 32.1397 274.554 35.3905C274.961 35.9973 275.949 36.4018 276.654 36.0659C276.831 35.9792 277.011 35.9034 277.19 35.8239C277.817 35.9178 278.482 35.73 278.883 35.199C282.232 34.1877 285.856 34.3321 289.098 35.8347C289.597 36.0659 290.058 36.3801 290.554 36.6077C290.639 36.7125 290.711 36.7919 290.774 36.8533C290.721 36.9473 290.661 37.0628 290.592 37.2109C289.644 38.2836 288.842 39.5226 287.977 40.6676C286.306 42.8745 284.635 45.0815 282.964 47.292L274.796 58.0846C269.132 55.8416 263.231 54.3498 257.177 53.6997C254.428 46.2481 252.346 38.5509 250.972 30.7237C254.744 29.1959 259.459 30.2289 262.135 33.3388ZM264.381 69.8236C262.258 65.8179 260.349 61.7075 258.652 57.5103C263.403 58.1785 268.049 59.3597 272.541 61.0718C270.238 64.1962 267.87 67.9743 264.381 69.8236ZM247.3 29.1634C247.293 34.0288 248.54 38.8002 249.959 43.4524C252.748 52.5944 256.239 61.5197 260.39 70.1307C261.012 71.4201 261.736 72.7891 263.025 73.414C265.68 74.6962 268.495 72.0992 270.307 69.7767C275.655 62.9103 281.003 56.0439 286.352 49.1811C289.343 45.3415 292.367 41.4478 294.318 36.9906C296.077 32.9668 296.909 28.6144 297.727 24.3017C299.265 16.1999 300.802 8.10181 302.34 9.15527e-05H298.787L292.57 33.6206C291.951 33.2052 291.279 32.8657 290.675 32.5839C287.287 31.0127 283.443 30.5721 279.799 31.2547L285.579 9.15527e-05H281.906L276.057 31.6267C273.235 29.0008 269.009 28.1123 265.381 29.3512L270.808 9.15527e-05H267.135L261.861 28.5204C258.509 26.458 254.414 25.9126 250.607 27.0829L255.615 9.15527e-05H252.019C250.854 6.36804 249.689 12.736 248.524 19.104C247.915 22.4306 247.304 25.7789 247.3 29.1634Z" fill="#79b9e5"/>
<path d="M62.2889 842.669C61.7042 841.939 60.6596 841.502 59.7959 842.116C56.6264 844.363 52.0128 843.5 49.9529 840.173C49.5671 839.552 48.5951 839.111 47.8778 839.422C47.6979 839.501 47.5155 839.573 47.3331 839.642C46.7108 839.526 46.0393 839.692 45.6196 840.205C42.2362 841.098 38.6192 840.823 35.4342 839.205C34.9436 838.956 34.4942 838.627 34.0063 838.378C33.9254 838.273 33.856 838.19 33.7958 838.125C33.8521 838.031 33.9157 837.919 33.9902 837.775C34.9763 836.738 35.8231 835.528 36.7286 834.415C38.4779 832.27 40.2276 830.124 41.9772 827.975L50.5297 817.482C56.1092 819.931 61.952 821.632 67.9782 822.503C70.4564 830.048 72.2599 837.814 73.3507 845.688C69.5256 847.075 64.8506 845.876 62.2889 842.669ZM61.3614 806.13C63.3382 810.208 65.0973 814.383 66.6418 818.638C61.9184 817.804 57.3174 816.453 52.8905 814.578C55.3055 811.541 57.8072 807.853 61.3614 806.13ZM76.9638 847.379C77.1455 842.517 76.072 837.702 74.8215 833.003C72.3646 823.767 69.1987 814.719 65.3606 805.967C64.7856 804.656 64.1119 803.258 62.8459 802.59C60.2391 801.214 57.3322 803.706 55.4377 805.964C49.8449 812.631 44.2524 819.299 38.66 825.967C35.5314 829.694 32.37 833.476 30.259 837.861C28.3552 841.816 27.3673 846.14 26.3936 850.42C22.4065 867.946 18.4198 885.475 14.4328 903H18.1523L31.8838 841.293C32.4871 841.726 33.1468 842.094 33.7405 842.394C37.0696 844.088 40.8951 844.666 44.5609 844.117L31.4577 903H35.158L48.3141 843.879C51.0401 846.602 55.2311 847.642 58.9016 846.541L46.338 903H50.0381L62.3894 847.494C65.664 849.68 69.7369 850.373 73.584 849.34L61.6431 903H65.3191C68.6721 887.797 72.0247 872.591 75.3778 857.388C76.1063 854.083 76.8374 850.76 76.9638 847.379Z" fill="#79b9e5"/>
<path d="M889.246 207.062C886.038 203.923 884.629 199.82 884.167 195.431C883.651 190.49 883.712 185.437 883.809 180.474C883.838 178.989 883.885 177.501 883.95 176.016C890.257 177.468 896.61 178.679 903 179.657V176.02C896.675 175.03 890.391 173.81 884.149 172.358C884.387 168.634 884.734 164.917 885.193 161.218C891.08 163.021 897.019 164.65 903 166.109V162.388C897.185 160.954 891.406 159.358 885.673 157.599C886.121 154.471 886.641 151.354 887.237 148.251C892.507 149.114 897.763 150.071 903 151.115V141.37L901.707 147.182C897.456 146.355 893.19 145.585 888.913 144.874L903 81.5735V63.4485C900.706 73.5332 898.413 83.6179 896.119 93.699C890.029 120.475 883.929 147.297 880.458 174.536C879.587 181.366 878.886 188.33 880.082 195.113C882.325 207.813 892.135 216.525 903 215.59V212.039C898.034 212.418 893.013 210.742 889.246 207.062Z" fill="#79b9e5"/>
<path d="M894.866 449.149C882.769 442.578 871.232 435.029 860.335 426.621C862.098 423.334 863.958 420.097 865.912 416.922C876.542 426.35 887.786 435.058 899.572 442.994C898.001 445.045 896.433 447.097 894.866 449.149ZM889.762 455.82C884.362 462.889 878.742 470.582 869.199 471.565C861.137 472.399 853.479 467.909 850.546 460.303C848.932 456.12 849.354 451.796 850.76 447.617C852.342 442.904 854.498 438.334 856.651 433.863C857.294 432.523 857.955 431.19 858.634 429.868C869.39 438.125 880.768 445.519 892.662 452.031L889.762 455.82ZM901.765 440.126C889.885 432.125 878.558 423.345 867.852 413.831C869.56 411.172 871.33 408.553 873.161 405.978C883.394 412.844 893.345 420.119 903 427.776V423.182C902.436 422.741 901.877 422.293 901.309 421.853L903 419.621V413.632L898.449 419.649C895.559 417.443 892.641 415.272 889.697 413.13L903 395.543V389.554L886.764 411.02C883.242 408.499 879.684 406.025 876.09 403.605L903 368.027V361.243C886.638 382.67 870.286 404.161 856.073 427.068C852.439 432.92 848.907 438.959 847.176 445.627C842.701 462.874 854.527 479.2 873.23 473.894C882.906 471.153 889.639 462.636 895.693 454.603C898.127 451.37 900.565 448.134 903 444.901V438.511C902.588 439.05 902.176 439.588 901.765 440.126Z" fill="#79b9e5"/>
<path d="M768.081 900.302C757.231 890.954 747.023 880.891 737.52 870.178C739.528 867.74 741.598 865.349 743.722 863.008C754.717 872.457 765.264 882.412 775.334 892.843C772.917 895.328 770.497 897.817 768.081 900.302ZM777.761 890.159C775.139 887.443 772.48 884.759 769.793 882.108L903 743.704V738.495L767.21 879.58C764.603 877.044 761.962 874.541 759.293 872.07L903 722.758V717.549L756.631 869.625C753.431 866.707 750.191 863.828 746.911 860.996L893.67 708.515C893.959 709.202 894.331 709.856 894.682 710.423C896.639 713.594 899.594 716.072 903 717.513V713.5C900.898 712.344 899.085 710.683 897.788 708.581C897.499 708.111 897.286 707.594 896.997 707.132C896.986 706.998 896.968 706.89 896.95 706.807C897.047 706.756 897.159 706.691 897.297 706.608C898.68 706.233 900.035 705.64 901.385 705.164C901.924 704.972 902.462 704.784 903 704.593V700.493C899.886 701.635 896.842 702.942 894.068 704.737C890.383 707.125 887.291 710.303 884.232 713.449C849.384 749.317 814.538 785.184 779.694 821.047C760.561 840.74 741.392 860.472 724.253 881.924C719.955 887.306 715.732 892.886 713.226 899.301C712.745 900.529 712.355 901.768 712.052 903H715.971C716.151 902.563 716.343 902.129 716.545 901.7C718.676 897.21 721.356 892.93 724.022 888.74C724.82 887.486 725.636 886.244 726.467 885.009C732.976 891.366 739.817 897.358 746.944 903H752.762C744.267 896.506 736.18 889.48 728.54 881.985C730.682 878.93 732.911 875.939 735.226 873.017C744.664 883.636 754.796 893.616 765.56 902.892C765.527 902.928 765.491 902.964 765.455 903H770.841C773.499 900.23 776.154 897.459 778.809 894.689C820.206 851.515 861.603 808.337 903 765.162V760.037L777.761 890.159Z" fill="#79b9e5"/>
<path d="M760.16 5.44696C757.66 3.67708 755.197 1.86021 752.762 3.24249e-05H746.944C750.44 2.76682 753.998 5.45418 757.628 8.0476L754.301 11.4681C748.103 17.8433 741.612 24.8181 732.019 24.6664C723.913 24.5364 716.841 19.1725 714.829 11.2731C713.843 7.39378 714.482 3.6012 715.971 3.24249e-05H712.052C708.245 15.3944 717.968 30.283 735.746 27.4548C745.676 25.8764 753.373 18.219 760.333 10.9589C763.837 7.30712 767.337 3.65176 770.841 3.24249e-05H765.455C763.689 1.81687 761.923 3.63012 760.16 5.44696Z" fill="#79b9e5"/>
<path d="M802.839 637.189C797.754 623.803 793.567 610.092 790.317 596.146C793.242 594.958 796.201 593.842 799.184 592.794C804.353 606.339 808.886 620.119 812.772 634.087C809.46 635.12 806.152 636.153 802.839 637.189ZM791.996 640.577C785.91 628.232 780.842 615.409 776.793 602.254C780.131 600.585 783.519 599.018 786.947 597.548C790.186 611.385 794.344 624.984 799.39 638.266C796.926 639.039 794.46 639.808 791.996 640.577ZM783.981 643.084C775.489 645.735 766.463 648.78 758.101 644.078C751.036 640.104 747.37 632.017 749.364 624.114C750.462 619.765 753.301 616.482 756.859 613.878C760.872 610.941 765.267 608.456 769.605 606.04C770.906 605.317 772.213 604.613 773.532 603.923C777.552 616.876 782.58 629.478 788.532 641.661L783.981 643.084ZM816.182 632.884C815.171 629.243 814.112 625.617 813.011 622.005L903 593.361V589.572L811.945 618.552C810.858 615.08 809.727 611.624 808.561 608.178L903 578.119V574.33L807.383 604.761C805.96 600.672 804.479 596.598 802.944 592.545L903 560.698V556.685C885.597 562.132 868.198 567.583 850.796 573.029C824.591 581.236 798.342 589.457 773.055 600.159C766.712 602.843 760.341 605.736 755.081 610.186C741.475 621.687 741.71 641.845 760.048 648.304C769.533 651.648 779.946 648.578 789.526 645.508C797.999 642.792 806.473 640.079 814.95 637.363C844.298 627.961 873.649 618.555 903 609.153V605.248L816.182 632.884Z" fill="#79b9e5"/>
<path d="M141.474 898.684C139.364 898.875 138.219 900.829 137.609 903H141.863C141.96 902.816 142.058 902.635 142.164 902.458C142.458 902.635 142.746 902.823 143.038 903H149.654C148.256 902.028 146.849 901.071 145.425 900.136C144.227 899.352 142.9 898.55 141.474 898.684Z" fill="#79b9e5"/>
<path d="M680.486 859.298C671.157 855.549 660.617 858.168 650.919 860.819C642.333 863.167 633.747 865.515 625.165 867.859C582.319 879.572 539.478 891.286 496.632 903H510.535L623.738 872.283C624.594 875.964 625.494 879.63 626.436 883.289L553.792 903H567.582L627.354 886.782C628.289 890.297 629.268 893.8 630.287 897.293L609.254 903H623.048L631.316 900.757C631.54 901.505 631.768 902.252 631.999 903H635.77C632.541 892.514 629.68 881.917 627.199 871.229C630.551 870.337 633.902 869.448 637.254 868.556C641 879.858 644.11 891.355 646.573 903H650.258C647.765 891.041 644.59 879.229 640.747 867.628C643.243 866.967 645.739 866.302 648.235 865.637C653.562 877.734 657.929 890.235 661.346 903H665.085C661.628 889.907 657.156 877.116 651.742 864.706L656.351 863.481C664.948 861.198 674.1 858.547 682.249 863.608C689.137 867.88 692.449 876.116 690.116 883.929C688.83 888.223 685.854 891.384 682.184 893.833C678.052 896.592 673.551 898.886 669.112 901.111C667.823 901.758 666.522 902.386 665.218 903H674.761C677.951 901.494 681.014 899.756 683.802 897.596C697.893 886.692 698.528 866.544 680.486 859.298Z" fill="#79b9e5"/>
<path d="M289.788 717.592C290.437 714.186 291.086 710.78 291.734 707.37C305.938 709.198 320.001 711.972 333.834 715.682C333.501 718.821 333.093 721.956 332.608 725.08C318.226 723.249 303.939 720.753 289.788 717.592ZM293.859 696.209C307.616 696.665 321.314 698.243 334.823 700.876C334.72 704.604 334.508 708.331 334.185 712.048C320.457 708.382 306.503 705.633 292.41 703.824C292.893 701.284 293.376 698.749 293.859 696.209ZM295.429 687.96C297.092 679.222 298.667 669.827 306.755 664.669C313.591 660.313 322.449 660.895 328.48 666.378C331.797 669.398 333.355 673.45 333.973 677.817C334.67 682.737 334.79 687.79 334.872 692.753C334.897 694.237 334.902 695.725 334.89 697.21C321.573 694.649 308.088 693.143 294.537 692.648L295.429 687.96ZM338.435 698.564C339.058 691.705 339.508 684.723 338.067 677.99C334.339 660.566 316.451 651.269 302.109 664.395C294.69 671.182 292.486 681.816 290.676 691.705C289.074 700.461 287.473 709.213 285.871 717.968C274.587 779.647 263.303 841.321 252.019 903H255.615L289.24 721.168C292.927 721.992 296.624 722.768 300.329 723.502L267.135 903H270.808L303.875 724.188C307.449 724.867 311.031 725.499 314.62 726.095L281.906 903H285.579L318.188 726.669C322.467 727.341 326.757 727.959 331.054 728.512L298.787 903H302.34C310.127 861.971 317.915 820.943 325.702 779.914C330.822 752.936 335.949 725.911 338.435 698.564Z" fill="#79b9e5"/>
</svg>
